<svg version="1.2" xmlns="http://www.w3.org/2000/svg" viewBox="0 0 1254 1254" width="500" height="500">
	<style>
		.s0 { fill: #11120e } 
		.s1 { opacity: 1;fill: #fdfcfd } 
		.s2 { fill: #ace005 } 
		.s3 { fill: #7caa09 } 
	</style>
	<g id="Background">
		<path id="Path 0" class="s0" d="m0 627v627h1254v-1254h-1254z"/>
		<path id="Path 1" class="s1" d="m680.21 363.77c-1.81 0.28-7.66 1.4-13 2.49-5.34 1.1-13.54 3.34-18.21 4.98-4.67 1.65-12.1 4.79-16.5 7-4.4 2.2-11.6 6.33-16 9.18-4.4 2.85-11.8 8.53-16.45 12.63-4.65 4.1-11.35 10.83-14.89 14.95-3.54 4.13-9.27 11.77-12.73 17-3.46 5.23-8.41 14-10.99 19.5-2.58 5.5-6.47 15.4-8.63 22-2.17 6.6-4.78 16.95-5.8 23-1.03 6.05-2.24 15.84-2.69 21.76l-0.82 10.76 94.5-0.02c-0.02-13.35 0.76-19.55 2.04-24.5 1.13-4.4 3.49-10.7 5.26-14 1.76-3.3 6.35-9.23 10.2-13.18 5.33-5.46 8.79-8.01 14.5-10.67 4.12-1.93 10.42-3.98 14-4.57 4.15-0.68 31.13-1.06 74.5-1.06 42.67 0 70.42 0.39 74.5 1.04 3.58 0.58 9.87 2.67 14 4.64 5.6 2.67 9.33 5.44 14.75 10.94 5.51 5.6 8.18 9.34 11.15 15.61 2.14 4.54 4.47 10.73 5.18 13.75 0.71 3.02 1.28 10 1.26 15.5-0.03 8.32-0.51 11.43-2.9 18.5-1.61 4.76-4.95 11.58-7.58 15.5-2.59 3.85-6.43 8.64-8.53 10.65-2.11 2-8.33 6.77-13.83 10.59-5.5 3.82-27.33 18.79-48.5 33.27-21.17 14.48-45.92 31.5-55 37.82-9.08 6.33-26.17 18.25-38 26.51-11.83 8.25-42.2 29.71-67.5 47.68-25.3 17.97-55.45 39.5-67 47.83-14.12 10.2-21.57 16.23-22.75 18.41-0.98 1.8-1.76 5.36-1.75 7.99v4.75c120.46-0.13 140.39-0.47 142.75-1.33 1.78-0.64 22.6-14.44 46.27-30.67 23.66-16.23 47.85-32.83 53.75-36.9 5.9-4.07 32.56-22.04 59.23-39.93 26.67-17.89 53-35.71 58.5-39.59 5.5-3.89 14.22-11.12 19.38-16.08 5.16-4.95 12.6-13.27 16.54-18.5 3.93-5.23 9.5-13.66 12.37-18.75 2.86-5.09 6.75-12.96 8.64-17.5 1.88-4.54 4.54-12.08 5.91-16.75 1.36-4.67 3.21-13.45 4.11-19.5 0.91-6.13 1.65-17.42 1.67-25.5 0.02-8.67-0.61-18.52-1.57-24.5-0.89-5.5-2.76-13.82-4.17-18.5-1.41-4.67-4.1-12.21-5.97-16.75-1.88-4.54-5.76-12.41-8.62-17.5-2.87-5.09-8.44-13.52-12.38-18.75-3.94-5.23-10.94-13.11-15.54-17.51-4.6-4.41-11.07-10.08-14.37-12.6-3.3-2.52-8.92-6.42-12.5-8.67-3.58-2.26-10.78-6.12-16-8.6-5.23-2.47-13.78-5.88-19-7.57-5.23-1.69-13.33-3.84-18-4.77-7.51-1.5-17.53-1.71-86-1.85-42.63-0.08-78.98 0.07-80.79 0.34z"/>
		<path id="Path 2" class="s2" d="m409 321.78c-11.82 8.78-30.05 22.32-40.5 30.09-10.45 7.77-23.05 17.19-28 20.94-6.54 4.95-9.61 8.03-11.24 11.25l-2.23 4.44c-0.03 434.17 0.2 474.7 1.35 480.75 0.76 3.99 2.57 10.17 4.01 13.75 1.44 3.58 4.08 8.97 5.87 11.98 1.78 3.02 6.73 8.98 10.99 13.25 6.24 6.26 9.55 8.65 17 12.27 5.09 2.48 12.51 5.18 16.5 6 6.32 1.31 35.5 1.5 226.5 1.48 214.72-0.02 219.33-0.06 223.25-1.96 2.57-1.24 22.8-20.56 56.5-53.95l52.5-52.02-510.5-0.05-0.5-514.19z"/>
		<path id="Path 3" class="s3" d="m724.5 362.75c19.25 0.15 50.3 0.15 69 0 18.7-0.15 2.95-0.28-35-0.28-37.95 0-53.25 0.13-34 0.28zm-398.01 255.25c0 125.67 0.12 176.98 0.26 114 0.14-62.98 0.14-165.8 0-228.5-0.14-62.7-0.26-11.18-0.26 114.5zm397.01-156.25c19.8 0.15 51.75 0.15 71 0 19.25-0.15 3.05-0.28-36-0.28-39.05 0-54.8 0.13-35 0.28zm251.84 65.25c0 4.13 0.17 5.92 0.39 4 0.21-1.92 0.21-5.3 0-7.5-0.22-2.2-0.39-0.63-0.39 3.5zm-408.34 2.75c12.92 0.16 34.3 0.16 47.5 0 13.2-0.16 2.62-0.29-23.5-0.29-26.13 0-36.92 0.13-24 0.29zm360.47 106.5l-6.97 7.25c11.25-10.85 14.51-14.11 14.51-14.25-0.01-0.14-0.13-0.25-0.29-0.25-0.15 0-3.41 3.26-7.25 7.25zm-382.05 161.99l0.08 4.26 138 0.02-137.5-0.52-0.67-8.01zm13.59 21.5c70.67 0.14 185.87 0.14 256 0 70.12-0.14 12.3-0.26-128.5-0.26-140.8 0-198.18 0.12-127.5 0.26zm307.49 74.5l-29.99 30.25c46.89-46.5 60.5-60.11 60.5-60.25 0-0.13-0.12-0.25-0.26-0.25-0.14 0-13.75 13.62-30.25 30.25zm-365.49 34.5c60.22 0.14 158.32 0.14 218 0 59.67-0.14 10.4-0.26-109.5-0.26-119.9 0-168.73 0.12-108.5 0.26z"/>
	</g>
</svg>